<svg width="57" height="55" viewBox="0 0 57 55" fill="none" xmlns="http://www.w3.org/2000/svg">
<path fill-rule="evenodd" clip-rule="evenodd" d="M28.4974 0C12.7615 0 0 12.6237 0 28.1969C0 40.6526 8.16535 51.2216 19.4905 54.9518C20.9164 55.2097 21.436 54.339 21.436 53.5913C21.436 52.9214 21.4115 51.1489 21.3975 48.7966C13.4701 50.4998 11.7975 45.0163 11.7975 45.0163C10.5011 41.7587 8.63251 40.8915 8.63251 40.8915C6.04486 39.1432 8.82846 39.1779 8.82846 39.1779C11.689 39.3769 13.1937 42.0841 13.1937 42.0841C15.7358 46.3924 19.8649 45.1478 21.4885 44.426C21.7475 42.6051 22.484 41.3622 23.2976 40.6578C16.9693 39.9446 10.3156 37.5266 10.3156 26.7221C10.3156 23.6428 11.4266 21.1278 13.2497 19.1562C12.9558 18.4431 11.9777 15.5766 13.5296 11.6942C13.5296 11.6942 15.9213 10.936 21.366 14.5831C23.6388 13.9582 26.0777 13.6466 28.5009 13.6345C30.9223 13.6466 33.3595 13.9582 35.6357 14.5831C41.077 10.936 43.4651 11.6942 43.4651 11.6942C45.0205 15.5766 44.0425 18.4431 43.7503 19.1562C45.5769 21.1278 46.6791 23.6428 46.6791 26.7221C46.6791 37.5543 40.0149 39.9377 33.6674 40.6353C34.6892 41.5059 35.6007 43.2265 35.6007 45.8575C35.6007 49.6257 35.5657 52.667 35.5657 53.5913C35.5657 54.346 36.0801 55.2235 37.5253 54.9483C48.8417 51.2112 57 40.6509 57 28.1969C57 12.6237 44.2385 0 28.4974 0Z" fill="white"/>
</svg>
