<svg width="57" height="57" viewBox="0 0 57 57" fill="none" xmlns="http://www.w3.org/2000/svg">
<path d="M37.5179 0C43.1314 0 45.8306 0.521254 48.6352 2.02119C51.1786 3.3814 53.19 5.3928 54.5503 7.93617C56.0502 10.7408 56.5714 13.4401 56.5714 19.0535V37.5179C56.5714 43.1313 56.0502 45.8306 54.5503 48.6352C53.19 51.1786 51.1786 53.19 48.6352 54.5503C45.8306 56.0502 43.1314 56.5714 37.5179 56.5714H19.0535C13.4401 56.5714 10.7408 56.0502 7.93618 54.5503C5.3928 53.19 3.3814 51.1786 2.02119 48.6352C0.521255 45.8306 0 43.1313 0 37.5179V19.0535C0 13.4401 0.521255 10.7408 2.02119 7.93617C3.3814 5.3928 5.3928 3.3814 7.93618 2.02119C10.7408 0.521254 13.4401 0 19.0535 0H37.5179ZM37.5179 5.14286H19.0535C14.2165 5.14286 12.3193 5.50924 10.3615 6.55622C8.71442 7.43711 7.43711 8.71442 6.55622 10.3615C5.50924 12.3193 5.14286 14.2165 5.14286 19.0535V37.5179C5.14286 42.355 5.50924 44.2522 6.55622 46.2099C7.43711 47.8571 8.71442 49.1343 10.3615 50.0153C12.3193 51.0621 14.2165 51.4286 19.0535 51.4286H37.5179C42.355 51.4286 44.2522 51.0621 46.2099 50.0153C47.8571 49.1343 49.1344 47.8571 50.0153 46.2099C51.0622 44.2522 51.4286 42.355 51.4286 37.5179V19.0535C51.4286 14.2165 51.0622 12.3193 50.0153 10.3615C49.1344 8.71442 47.8571 7.43711 46.2099 6.55622C44.2522 5.50924 42.355 5.14286 37.5179 5.14286Z" fill="white"/>
<path d="M40.6914 21.6914V18.5L28 26.4414L15.3086 18.5V21.6914L28 29.5586L40.6914 21.6914ZM40.6914 15.3086C41.5326 15.3086 42.25 15.6302 42.8438 16.2734C43.487 16.9167 43.8086 17.6589 43.8086 18.5V37.5C43.8086 38.3411 43.487 39.0833 42.8438 39.7266C42.25 40.3698 41.5326 40.6914 40.6914 40.6914H15.3086C14.4674 40.6914 13.7253 40.3698 13.082 39.7266C12.4883 39.0833 12.1914 38.3411 12.1914 37.5V18.5C12.1914 17.6589 12.4883 16.9167 13.082 16.2734C13.7253 15.6302 14.4674 15.3086 15.3086 15.3086H40.6914Z" fill="white"/>
</svg>
