<svg width="57" height="57" viewBox="0 0 57 57" fill="none" xmlns="http://www.w3.org/2000/svg">
<path d="M37.5179 0C43.1314 0 45.8306 0.521254 48.6352 2.02119C51.1786 3.3814 53.19 5.3928 54.5503 7.93617C56.0502 10.7408 56.5714 13.4401 56.5714 19.0535V37.5179C56.5714 43.1313 56.0502 45.8306 54.5503 48.6352C53.19 51.1786 51.1786 53.19 48.6352 54.5503C45.8306 56.0502 43.1314 56.5714 37.5179 56.5714H19.0535C13.4401 56.5714 10.7408 56.0502 7.93618 54.5503C5.3928 53.19 3.3814 51.1786 2.02119 48.6352C0.521255 45.8306 0 43.1313 0 37.5179V19.0535C0 13.4401 0.521255 10.7408 2.02119 7.93617C3.3814 5.3928 5.3928 3.3814 7.93618 2.02119C10.7408 0.521254 13.4401 0 19.0535 0H37.5179ZM37.5179 5.14286H19.0535C14.2165 5.14286 12.3193 5.50924 10.3615 6.55622C8.71442 7.43711 7.43711 8.71442 6.55622 10.3615C5.50924 12.3193 5.14286 14.2165 5.14286 19.0535V37.5179C5.14286 42.355 5.50924 44.2522 6.55622 46.2099C7.43711 47.8571 8.71442 49.1343 10.3615 50.0153C12.3193 51.0621 14.2165 51.4286 19.0535 51.4286H37.5179C42.355 51.4286 44.2522 51.0621 46.2099 50.0153C47.8571 49.1343 49.1344 47.8571 50.0153 46.2099C51.0622 44.2522 51.4286 42.355 51.4286 37.5179V19.0535C51.4286 14.2165 51.0622 12.3193 50.0153 10.3615C49.1344 8.71442 47.8571 7.43711 46.2099 6.55622C44.2522 5.50924 42.355 5.14286 37.5179 5.14286Z" fill="white"/>
<path fill-rule="evenodd" clip-rule="evenodd" d="M14.1311 25.7623C22.4526 22.2343 28.0015 19.9083 30.778 18.7846C38.7052 15.576 40.3525 15.0186 41.4261 15.0002C41.6622 14.9961 42.1902 15.0531 42.5322 15.3232C42.821 15.5512 42.9005 15.8592 42.9385 16.0754C42.9765 16.2916 43.0239 16.7841 42.9862 17.1689C42.5566 21.5613 40.6978 32.2203 39.7522 37.1397C39.3521 39.2214 38.5642 39.9193 37.8014 39.9876C36.1437 40.1361 34.885 38.9216 33.2794 37.8974C30.7671 36.2948 29.3478 35.2972 26.9091 33.7333C24.0908 31.926 25.9178 30.9327 27.5239 29.3094C27.9443 28.8845 35.248 22.4198 35.3894 21.8334C35.407 21.76 35.4235 21.4866 35.2565 21.3422C35.0896 21.1979 34.8433 21.2472 34.6655 21.2865C34.4136 21.3422 30.4001 23.9236 22.625 29.0309C21.4858 29.7921 20.454 30.1631 19.5294 30.1436C18.5102 30.1222 16.5497 29.5828 15.0922 29.1218C13.3046 28.5563 11.8838 28.2574 12.0075 27.297C12.072 26.7968 12.7798 26.2853 14.1311 25.7623Z" fill="white"/>
</svg>
