<svg width="58" height="57" viewBox="0 0 58 57" fill="none" xmlns="http://www.w3.org/2000/svg">
<path d="M38.2323 0.714287C43.8457 0.714287 46.5449 1.23554 49.3496 2.73548C51.893 4.09569 53.9044 6.10709 55.2647 8.65046C56.7646 11.4551 57.2858 14.1544 57.2858 19.7678V38.2322C57.2858 43.8456 56.7646 46.5449 55.2647 49.3495C53.9044 51.8929 51.893 53.9043 49.3496 55.2646C46.5449 56.7645 43.8457 57.2857 38.2323 57.2857H19.7679C14.1545 57.2857 11.4551 56.7645 8.65053 55.2646C6.10716 53.9043 4.09576 51.8929 2.73555 49.3495C1.23561 46.5449 0.714355 43.8456 0.714355 38.2322V19.7678C0.714355 14.1544 1.23561 11.4551 2.73555 8.65046C4.09576 6.10709 6.10716 4.09569 8.65053 2.73548C11.4551 1.23554 14.1545 0.714287 19.7679 0.714287H38.2323ZM38.2323 5.85714H19.7679C14.9309 5.85714 13.0336 6.22352 11.0759 7.2705C9.42877 8.1514 8.15147 9.4287 7.27057 11.0758C6.22359 13.0335 5.85721 14.9308 5.85721 19.7678V38.2322C5.85721 43.0693 6.22359 44.9665 7.27057 46.9241C8.15147 48.5714 9.42877 49.8486 11.0759 50.7296C13.0336 51.7764 14.9309 52.1429 19.7679 52.1429H38.2323C43.0694 52.1429 44.9666 51.7764 46.9242 50.7296C48.5715 49.8486 49.8487 48.5714 50.7297 46.9241C51.7765 44.9665 52.1429 43.0693 52.1429 38.2322V19.7678C52.1429 14.9308 51.7765 13.0335 50.7297 11.0758C49.8487 9.4287 48.5715 8.1514 46.9242 7.2705C44.9666 6.22352 43.0694 5.85714 38.2323 5.85714Z" fill="white"/>
<path d="M30.9515 40.1343C19.348 40.1343 12.3081 32.0921 12.0322 18.7143H17.9091C18.0923 28.5413 22.5633 32.6951 25.9907 33.5514V18.7143H31.6227V27.2C34.9285 26.8336 38.3886 22.9713 39.5517 18.7143H45.0952C44.208 23.9489 40.4411 27.7945 37.7795 29.3857C40.4432 30.6722 44.7287 34.0433 46.3817 40.1343H40.2887C39.0022 36.0627 35.8506 32.9253 31.6247 32.4971V40.1343H30.9515Z" fill="white"/>
</svg>
