<svg width="55" height="55" viewBox="0 0 55 55" fill="none" xmlns="http://www.w3.org/2000/svg">
<path d="M22.7999 22.7803C22.7999 20.707 21.389 20.707 21.389 20.707H20.6415H15.5847H15.5825V25.157H21.0288C21.9706 25.157 22.7999 24.8569 22.7999 22.7803Z" fill="white"/>
<path d="M36.2505 25.157C33.171 25.157 32.7422 28.2299 32.7422 28.2299H39.2928C39.2928 28.2299 39.3332 25.157 36.2505 25.157Z" fill="white"/>
<path d="M21.3896 28.2299H15.5864V33.5595H20.7272C20.8145 33.5595 20.9433 33.5639 21.0971 33.5595C21.9232 33.5409 23.4935 33.3031 23.4935 30.9689C23.4935 28.2037 21.3896 28.2299 21.3896 28.2299Z" fill="white"/>
<path d="M27.0909 0.207153C12.153 0.207153 0 12.3602 0 27.298C0 42.2359 12.153 54.3889 27.0909 54.3889C42.0287 54.3889 54.1817 42.2359 54.1817 27.298C54.1817 12.3602 42.0287 0.207153 27.0909 0.207153ZM31.8835 18.3379H40.1114V20.7943H31.8835V18.3379ZM27.7249 31.2188C27.7249 37.3046 21.3892 37.1049 21.3892 37.1049H15.586H15.4158H11.0138V17.1627H15.4158H15.586H21.3892C24.5439 17.1627 27.033 18.9054 27.033 22.4737C27.033 26.0409 23.9907 26.2679 23.9907 26.2679C28.001 26.2679 27.7249 31.2188 27.7249 31.2188ZM43.1156 30.8914H32.7816C32.7816 34.5973 36.291 34.3626 36.291 34.3626C39.6051 34.3626 39.4883 32.2184 39.4883 32.2184H42.9999C42.9999 37.9113 36.1754 37.5207 36.1754 37.5207C27.9879 37.5207 28.5138 29.8984 28.5138 29.8984C28.5138 29.8984 28.5073 22.2358 36.1754 22.2358C44.2472 22.2358 43.1156 30.8914 43.1156 30.8914Z" fill="white"/>
</svg>
