<svg width="52" height="52" viewBox="0 0 52 52" fill="none" xmlns="http://www.w3.org/2000/svg">
<rect x="1" y="1" width="50" height="50" rx="13" stroke="white" stroke-width="2"/>
<path d="M23.3074 23.1651C23.3074 21.864 22.422 21.864 22.422 21.864H21.9529H18.7797H18.7783V24.6565H22.196C22.7869 24.6565 23.3074 24.4682 23.3074 23.1651Z" fill="white"/>
<path d="M31.7479 24.6565C29.8155 24.6565 29.5464 26.5848 29.5464 26.5848H33.657C33.657 26.5848 33.6824 24.6565 31.7479 24.6565Z" fill="white"/>
<path d="M22.4223 26.5848H18.7808V29.9292H22.0067C22.0615 29.9292 22.1423 29.9319 22.2388 29.9292C22.7572 29.9175 23.7426 29.7683 23.7426 28.3035C23.7426 26.5683 22.4223 26.5848 22.4223 26.5848Z" fill="white"/>
<path d="M26 9C16.6262 9 9 16.6262 9 26C9 35.3738 16.6262 43 26 43C35.3738 43 43 35.3738 43 26C43 16.6262 35.3738 9 26 9ZM29.0075 20.3774H34.1706V21.9188H29.0075V20.3774ZM26.3979 28.4604C26.3979 32.2793 22.4221 32.154 22.4221 32.154H18.7805H18.6737H15.9113V19.6399H18.6737H18.7805H22.4221C24.4018 19.6399 25.9637 20.7335 25.9637 22.9727C25.9637 25.2112 24.0546 25.3536 24.0546 25.3536C26.5711 25.3536 26.3979 28.4604 26.3979 28.4604ZM36.0558 28.2549H29.5711C29.5711 30.5804 31.7733 30.4332 31.7733 30.4332C33.8529 30.4332 33.7796 29.0876 33.7796 29.0876H35.9832C35.9832 32.66 31.7007 32.4149 31.7007 32.4149C26.5629 32.4149 26.8929 27.6318 26.8929 27.6318C26.8929 27.6318 26.8888 22.8234 31.7007 22.8234C36.7659 22.8234 36.0558 28.2549 36.0558 28.2549Z" fill="white"/>
</svg>
