<svg width="52" height="52" viewBox="0 0 52 52" fill="none" xmlns="http://www.w3.org/2000/svg">
<rect x="1" y="1" width="50" height="50" rx="13" stroke="white" stroke-width="2"/>
<path fill-rule="evenodd" clip-rule="evenodd" d="M26.4984 9C16.836 9 9 16.8038 9 26.4308C9 34.1307 14.0138 40.6643 20.9678 42.9702C21.8434 43.1296 22.1625 42.5914 22.1625 42.1292C22.1625 41.7151 22.1474 40.6193 22.1388 39.1652C17.2711 40.2181 16.2441 36.8282 16.2441 36.8282C15.448 34.8144 14.3007 34.2784 14.3007 34.2784C12.7118 33.1976 14.421 33.219 14.421 33.219C16.1775 33.3421 17.1014 35.0156 17.1014 35.0156C18.6624 37.6789 21.1977 36.9095 22.1947 36.4633C22.3537 35.3377 22.806 34.5694 23.3055 34.1339C19.4198 33.693 15.3341 32.1982 15.3341 25.5191C15.3341 23.6155 16.0163 22.0608 17.1358 20.842C16.9553 20.4012 16.3547 18.6292 17.3077 16.2291C17.3077 16.2291 18.7762 15.7604 22.1195 18.015C23.515 17.6287 25.0126 17.4361 26.5005 17.4286C27.9874 17.4361 29.4839 17.6287 30.8816 18.015C34.2227 15.7604 35.6891 16.2291 35.6891 16.2291C36.6442 18.6292 36.0436 20.4012 35.8642 20.842C36.9858 22.0608 37.6626 23.6155 37.6626 25.5191C37.6626 32.2154 33.5706 33.6888 29.673 34.12C30.3004 34.6582 30.8601 35.7218 30.8601 37.3483C30.8601 39.6777 30.8386 41.5578 30.8386 42.1292C30.8386 42.5957 31.1545 43.1382 32.0418 42.968C38.9905 40.6579 44 34.1296 44 26.4308C44 16.8038 36.164 9 26.4984 9Z" fill="white"/>
</svg>
