<svg width="52" height="52" viewBox="0 0 52 52" fill="none" xmlns="http://www.w3.org/2000/svg">
<path d="M38.6914 19.6914V16.5L26 24.4414L13.3086 16.5V19.6914L26 27.5586L38.6914 19.6914ZM38.6914 13.3086C39.5326 13.3086 40.25 13.6302 40.8438 14.2734C41.487 14.9167 41.8086 15.6589 41.8086 16.5V35.5C41.8086 36.3411 41.487 37.0833 40.8438 37.7266C40.25 38.3698 39.5326 38.6914 38.6914 38.6914H13.3086C12.4674 38.6914 11.7253 38.3698 11.082 37.7266C10.4883 37.0833 10.1914 36.3411 10.1914 35.5V16.5C10.1914 15.6589 10.4883 14.9167 11.082 14.2734C11.7253 13.6302 12.4674 13.3086 13.3086 13.3086H38.6914Z" fill="white"/>
<rect x="1" y="1" width="50" height="50" rx="13" stroke="white" stroke-width="2"/>
</svg>
