<svg width="52" height="52" viewBox="0 0 52 52" fill="none" xmlns="http://www.w3.org/2000/svg">
<path d="M17.4648 24.0703C19.8398 28.6719 23.3281 32.1602 27.9297 34.5352L31.418 31.0469C31.9128 30.5521 32.457 30.4284 33.0508 30.6758C34.832 31.2695 36.7122 31.5664 38.6914 31.5664C39.1367 31.5664 39.5078 31.7148 39.8047 32.0117C40.1016 32.3086 40.25 32.6797 40.25 33.125V38.6914C40.25 39.1367 40.1016 39.5078 39.8047 39.8047C39.5078 40.1016 39.1367 40.25 38.6914 40.25C31.2695 40.25 24.9115 37.6276 19.6172 32.3828C14.3724 27.0885 11.75 20.7305 11.75 13.3086C11.75 12.8633 11.8984 12.4922 12.1953 12.1953C12.4922 11.8984 12.8633 11.75 13.3086 11.75H18.875C19.3203 11.75 19.6914 11.8984 19.9883 12.1953C20.2852 12.4922 20.4336 12.8633 20.4336 13.3086C20.4336 15.2878 20.7305 17.168 21.3242 18.9492C21.5221 19.5924 21.3984 20.1367 20.9531 20.582L17.4648 24.0703Z" fill="white"/>
<rect x="1" y="1" width="50" height="50" rx="13" stroke="white" stroke-width="2"/>
</svg>
