<svg width="52" height="52" viewBox="0 0 52 52" fill="none" xmlns="http://www.w3.org/2000/svg">
<rect x="1" y="1" width="50" height="50" rx="13" stroke="white" stroke-width="2"/>
<path fill-rule="evenodd" clip-rule="evenodd" d="M11.1311 24.7623C19.4526 21.2343 25.0015 18.9083 27.778 17.7846C35.7052 14.576 37.3525 14.0186 38.4261 14.0002C38.6622 13.9961 39.1902 14.0531 39.5322 14.3232C39.821 14.5512 39.9005 14.8592 39.9385 15.0754C39.9765 15.2916 40.0239 15.7841 39.9862 16.1689C39.5566 20.5613 37.6978 31.2203 36.7522 36.1397C36.3521 38.2214 35.5642 38.9193 34.8014 38.9876C33.1437 39.1361 31.885 37.9216 30.2794 36.8974C27.7671 35.2948 26.3478 34.2972 23.9091 32.7333C21.0908 30.926 22.9178 29.9327 24.5239 28.3094C24.9443 27.8845 32.248 21.4198 32.3894 20.8334C32.407 20.76 32.4235 20.4866 32.2566 20.3422C32.0896 20.1979 31.8433 20.2472 31.6655 20.2865C31.4136 20.3422 27.4001 22.9236 19.625 28.0309C18.4858 28.7921 17.454 29.1631 16.5294 29.1436C15.5102 29.1222 13.5497 28.5828 12.0922 28.1218C10.3046 27.5563 8.88379 27.2574 9.00751 26.297C9.07195 25.7968 9.77981 25.2853 11.1311 24.7623Z" fill="white"/>
</svg>
