<svg width="150" height="150" viewBox="0 0 150 150" fill="none" xmlns="http://www.w3.org/2000/svg">
<rect width="150" height="150" rx="19" fill="#151515"/>
<path d="M26.35 88.35C24.1167 88.35 21.9667 88.0667 19.9 87.5C17.8667 86.9 16.25 86.1833 15.05 85.35L17.45 80.6C18.65 81.3667 20.0833 82 21.75 82.5C23.4167 83 25.0833 83.25 26.75 83.25C28.7167 83.25 30.1333 82.9833 31 82.45C31.9 81.9167 32.35 81.2 32.35 80.3C32.35 79.5667 32.05 79.0167 31.45 78.65C30.85 78.25 30.0667 77.95 29.1 77.75C28.1333 77.55 27.05 77.3667 25.85 77.2C24.6833 77.0333 23.5 76.8167 22.3 76.55C21.1333 76.25 20.0667 75.8333 19.1 75.3C18.1333 74.7333 17.35 73.9833 16.75 73.05C16.15 72.1167 15.85 70.8833 15.85 69.35C15.85 67.65 16.3333 66.1833 17.3 64.95C18.2667 63.6833 19.6167 62.7167 21.35 62.05C23.1167 61.35 25.2 61 27.6 61C29.4 61 31.2167 61.2 33.05 61.6C34.8833 62 36.4 62.5667 37.6 63.3L35.2 68.05C33.9333 67.2833 32.65 66.7667 31.35 66.5C30.0833 66.2 28.8167 66.05 27.55 66.05C25.65 66.05 24.2333 66.3333 23.3 66.9C22.4 67.4667 21.95 68.1833 21.95 69.05C21.95 69.85 22.25 70.45 22.85 70.85C23.45 71.25 24.2333 71.5667 25.2 71.8C26.1667 72.0333 27.2333 72.2333 28.4 72.4C29.6 72.5333 30.7833 72.75 31.95 73.05C33.1167 73.35 34.1833 73.7667 35.15 74.3C36.15 74.8 36.95 75.5167 37.55 76.45C38.15 77.3833 38.45 78.6 38.45 80.1C38.45 81.7667 37.95 83.2167 36.95 84.45C35.9833 85.6833 34.6 86.65 32.8 87.35C31 88.0167 28.85 88.35 26.35 88.35ZM77.5324 61C79.6658 61 81.5491 61.4167 83.1824 62.25C84.8491 63.0833 86.1491 64.3667 87.0824 66.1C88.0158 67.8 88.4824 70 88.4824 72.7V88H82.2324V73.5C82.2324 71.1333 81.7158 69.3667 80.6824 68.2C79.6491 67.0333 78.1658 66.45 76.2324 66.45C74.8658 66.45 73.6491 66.75 72.5824 67.35C71.5491 67.95 70.7324 68.8333 70.1324 70C69.5658 71.1667 69.2824 72.65 69.2824 74.45V88H63.0324V73.5C63.0324 71.1333 62.5158 69.3667 61.4824 68.2C60.4491 67.0333 58.9658 66.45 57.0324 66.45C55.6658 66.45 54.4491 66.75 53.3824 67.35C52.3491 67.95 51.5324 68.8333 50.9324 70C50.3658 71.1667 50.0824 72.65 50.0824 74.45V88H43.8324V61.3H49.7824V68.4L48.7324 66.3C49.6324 64.5667 50.9324 63.25 52.6324 62.35C54.3658 61.45 56.3324 61 58.5324 61C61.0324 61 63.1991 61.6167 65.0324 62.85C66.8991 64.0833 68.1324 65.95 68.7324 68.45L66.2824 67.6C67.1491 65.6 68.5824 64 70.5824 62.8C72.5824 61.6 74.8991 61 77.5324 61ZM96.4691 88V50.9H102.719V88H96.4691ZM118.022 88L106.572 61.3H113.072L122.922 84.85H119.722L129.922 61.3H135.922L124.472 88H118.022Z" fill="white"/>
</svg>
